# xmcd
#
# Track frame offsets:
# 150
# 33384
# 48578
# 68304
# 88576
# 114847
# 142725
# 168936
# 204427
# 235140
#
# Disc length: 3506 seconds
#
#
# Revision: 0
# Processed by: cddbd v1.5.1PL0 Copyright (c) Steve Scherf et al.
# Submitted via: FreeRIP 2.93 
#
DISCID=730db00a
DTITLE=Songs Ohia - The Magnolia Electric Co
DYEAR=1900
DGENRE=Lo-Fi Country
TTITLE0=Farewell Transmission
TTITLE1=I've been Riding With...
TTITLE2=Just Be Simple
TTITLE3=Almost was Good Enough
TTITLE4=The Old Black Hen
TTITLE5=Peoria Lunch Box Blues
TTITLE6=John Henry Split My Heart
TTITLE7=Hold On Magnolia
TTITLE8=Blue Chicago Moon
TTITLE9=Ring The Bell
EXTD=
EXTT0=
EXTT1=
EXTT2=
EXTT3=
EXTT4=
EXTT5=
EXTT6=
EXTT7=
EXTT8=
EXTT9=
PLAYORDER=
